<svg version="1.1" id="Layer_1" xmlns="http://www.w3.org/2000/svg" xmlns:xlink="http://www.w3.org/1999/xlink" x="0px" y="0px"
	 width="100%" viewBox="0 0 637 799" enable-background="new 0 0 637 799" xml:space="preserve">
<path fill="#FFFFFF" opacity="1.000000" stroke="none" 
	d="
M1.000000,300.000000 
	C1.000000,200.000000 1.000000,100.500000 1.000000,1.000000 
	C213.333328,1.000000 425.666656,1.000000 638.000000,1.000000 
	C638.000000,267.333344 638.000000,533.666687 638.000000,800.000000 
	C425.666656,800.000000 213.333328,800.000000 1.000000,800.000000 
	C1.000000,633.500000 1.000000,467.000000 1.000000,300.000000 
M571.020996,718.497192 
	C585.105530,701.997620 592.984924,683.090027 592.989563,661.218689 
	C593.014282,544.060303 593.001160,426.901947 593.001404,309.743591 
	C593.001404,307.577087 592.563904,305.287811 593.123535,303.276459 
	C593.762390,300.980255 594.908325,298.575165 596.514648,296.851868 
	C599.554382,293.590851 603.572144,291.174530 606.321838,287.721130 
	C620.336853,270.119751 618.616943,251.612244 606.264526,233.806961 
	C597.331848,220.931046 584.578918,211.980988 572.940552,201.909195 
	C565.053833,195.084045 556.949585,188.510254 548.941589,181.823212 
	C549.779663,180.489304 550.329712,179.464111 551.017395,178.541504 
	C562.994019,162.472412 571.387512,144.681778 576.451050,125.323326 
	C579.020142,115.501740 576.324341,109.380104 567.041748,107.421242 
	C552.395142,104.330421 537.571655,101.182007 522.693237,100.333031 
	C507.367310,99.458534 491.834808,100.736595 476.485992,102.112991 
	C458.635223,103.713737 441.764038,109.412498 425.872894,117.651779 
	C418.191833,121.634262 410.926239,126.418007 403.291412,130.946381 
	C401.837128,117.352272 399.468689,104.144608 394.090607,91.594070 
	C384.198944,68.510658 369.258240,49.511196 348.655029,35.132359 
	C340.728241,29.600294 335.420807,30.172007 327.529205,35.893539 
	C311.186768,47.742085 298.949646,63.071598 289.851501,80.874031 
	C278.836304,102.427673 273.959290,125.279831 276.870728,149.551270 
	C277.156738,151.935669 276.908966,154.384109 276.908966,156.994781 
	C252.427582,156.994781 228.444916,157.110504 204.465805,156.869751 
	C200.878525,156.833725 196.972183,155.765900 193.781876,154.092010 
	C162.832291,137.853363 131.365143,137.490891 99.748512,151.373550 
	C77.035889,161.346497 59.610023,178.130402 44.634609,197.498199 
	C35.216282,209.679001 26.499928,222.368805 20.813833,236.852570 
	C18.966490,241.558151 19.639929,245.924225 23.574060,249.011139 
	C32.680622,256.156555 41.660885,263.581207 51.407688,269.765167 
	C66.589355,279.397308 83.313377,285.727661 101.319656,289.361420 
	C101.319656,311.426208 101.319176,333.080841 101.319748,354.735443 
	C101.322350,452.891510 101.306061,551.047546 101.363258,649.203613 
	C101.368011,657.357544 101.235161,665.593384 102.277451,673.647339 
	C104.267944,689.028320 110.800934,702.678040 120.533287,714.687744 
	C137.397980,735.498718 159.195587,747.753967 186.074341,747.853333 
	C294.397614,748.253906 402.723297,748.026367 511.048035,747.944092 
	C514.975037,747.941101 518.969421,747.337341 522.816467,746.488342 
	C541.582397,742.346680 557.503662,733.168457 571.020996,718.497192 
z"/>
<path fill="#013B52" opacity="1.000000" stroke="none" 
	d="
M570.771057,718.748779 
	C557.503662,733.168457 541.582397,742.346680 522.816467,746.488342 
	C518.969421,747.337341 514.975037,747.941101 511.048035,747.944092 
	C402.723297,748.026367 294.397614,748.253906 186.074341,747.853333 
	C159.195587,747.753967 137.397980,735.498718 120.533287,714.687744 
	C110.800934,702.678040 104.267944,689.028320 102.277451,673.647339 
	C101.235161,665.593384 101.368011,657.357544 101.363258,649.203613 
	C101.306061,551.047546 101.322350,452.891510 101.319748,354.735443 
	C101.319176,333.080841 101.319656,311.426208 101.319656,289.361420 
	C83.313377,285.727661 66.589355,279.397308 51.407688,269.765167 
	C41.660885,263.581207 32.680622,256.156555 23.574060,249.011139 
	C19.639929,245.924225 18.966490,241.558151 20.813833,236.852570 
	C26.499928,222.368805 35.216282,209.679001 44.634609,197.498199 
	C59.610023,178.130402 77.035889,161.346497 99.748512,151.373550 
	C131.365143,137.490891 162.832291,137.853363 193.781876,154.092010 
	C196.972183,155.765900 200.878525,156.833725 204.465805,156.869751 
	C228.444916,157.110504 252.427582,156.994781 276.908966,156.994781 
	C276.908966,154.384109 277.156738,151.935669 276.870728,149.551270 
	C273.959290,125.279831 278.836304,102.427673 289.851501,80.874031 
	C298.949646,63.071598 311.186768,47.742085 327.529205,35.893539 
	C335.420807,30.172007 340.728241,29.600294 348.655029,35.132359 
	C369.258240,49.511196 384.198944,68.510658 394.090607,91.594070 
	C399.468689,104.144608 401.837128,117.352272 403.291412,130.946381 
	C410.926239,126.418007 418.191833,121.634262 425.872894,117.651779 
	C441.764038,109.412498 458.635223,103.713737 476.485992,102.112991 
	C491.834808,100.736595 507.367310,99.458534 522.693237,100.333031 
	C537.571655,101.182007 552.395142,104.330421 567.041748,107.421242 
	C576.324341,109.380104 579.020142,115.501740 576.451050,125.323326 
	C571.387512,144.681778 562.994019,162.472412 551.017395,178.541504 
	C550.329712,179.464111 549.779663,180.489304 548.941589,181.823212 
	C556.949585,188.510254 565.053833,195.084045 572.940552,201.909195 
	C584.578918,211.980988 597.331848,220.931046 606.264526,233.806961 
	C618.616943,251.612244 620.336853,270.119751 606.321838,287.721130 
	C603.572144,291.174530 599.554382,293.590851 596.514648,296.851868 
	C594.908325,298.575165 593.762390,300.980255 593.123535,303.276459 
	C592.563904,305.287811 593.001404,307.577087 593.001404,309.743591 
	C593.001160,426.901947 593.014282,544.060303 592.989563,661.218689 
	C592.984924,683.090027 585.105530,701.997620 570.771057,718.748779 
M258.988983,477.985840 
	C258.988983,477.985840 258.965637,477.916107 258.455200,478.069580 
	C258.266663,478.359589 258.078125,478.649597 257.980957,478.933716 
	C257.980957,478.933716 257.909149,478.876862 257.270264,479.070801 
	C250.599609,485.710327 245.978424,493.415253 244.907043,503.004974 
	C244.907043,503.004974 244.917908,502.927368 244.324646,503.430023 
	C243.919907,505.347260 243.102249,507.289185 243.214996,509.175476 
	C243.355789,511.530914 244.262543,513.840515 245.011139,516.039490 
	C245.011139,516.039490 244.828094,516.153015 245.051743,516.883301 
	C247.694595,516.964050 250.337433,517.044739 253.767700,517.114929 
	C256.433258,516.268799 259.141418,515.536194 261.756378,514.555054 
	C269.533752,511.637054 276.791290,507.888763 282.668579,500.959351 
	C283.136230,500.320526 283.603882,499.681702 284.013184,498.996948 
	C284.013184,498.996948 284.042328,499.065247 284.613800,498.882263 
	C285.092224,498.262085 285.570679,497.641937 285.999939,497.000153 
	C285.999939,497.000153 286.024628,497.047943 286.630798,496.750275 
	C287.162567,495.558594 287.694305,494.366943 288.216339,493.240082 
	C288.216339,493.240082 288.281799,493.237457 288.941223,493.117218 
	C292.036438,487.816284 295.131622,482.515350 298.182831,477.213989 
	C298.182831,477.213989 298.210022,477.193115 298.860718,476.964264 
	C299.510010,474.979126 300.159302,472.993988 300.961823,470.966156 
	C300.961823,470.966156 300.999451,470.811615 301.537506,470.815155 
	C301.707458,470.192413 301.877411,469.569641 302.366455,468.344391 
	C302.249237,466.897156 302.132019,465.449921 301.982819,463.237671 
	C299.358582,460.136444 296.259003,460.336548 292.977081,461.913849 
	C292.977081,461.913849 292.946625,461.905060 292.474884,461.805237 
	C292.474884,461.805237 292.002838,461.903412 291.316498,461.892365 
	C290.489899,462.195099 289.663300,462.497833 288.034424,462.835480 
	C281.291992,465.788361 274.549561,468.741272 267.808746,471.740845 
	C267.808746,471.740845 267.824951,471.784637 267.178741,471.699799 
	C266.659576,472.078857 266.140411,472.457916 265.317474,472.853455 
	C265.317474,472.853455 265.057983,473.012207 264.392212,473.079041 
	C263.530487,473.980255 262.668732,474.881470 261.814331,475.863983 
	C261.814331,475.863983 261.881592,475.817719 261.272156,475.812042 
	C260.834198,476.202148 260.396240,476.592255 260.000427,477.003021 
	C260.000427,477.003021 259.991974,476.956818 259.501556,477.132996 
	C259.307190,477.410400 259.112793,477.687775 258.988983,477.985840 
M238.016052,275.948456 
	C238.016052,275.948456 238.114822,275.873291 237.809784,275.326782 
	C237.214539,275.175903 236.619293,275.025024 235.341293,274.839996 
	C234.885239,275.548737 234.429169,276.257477 233.464462,277.434204 
	C232.656418,279.641693 231.848373,281.849213 230.919922,284.362183 
	C230.919922,284.362183 230.924759,284.690491 230.361954,285.241669 
	C228.675461,290.499420 232.552933,292.084564 236.657242,294.666046 
	C238.614563,291.292236 240.392761,288.227203 242.098053,285.014801 
	C242.098053,285.014801 242.157104,285.160492 242.785645,285.109894 
	C243.231903,284.434631 243.678146,283.759369 244.063980,282.994141 
	C244.063980,282.994141 244.085800,283.100311 244.726227,282.796967 
	C246.578827,278.745300 245.759583,277.723877 240.004669,276.991058 
	C240.004669,276.991058 240.063751,276.954773 239.783707,276.402832 
	C239.212952,276.214325 238.642181,276.025848 238.016052,275.948456 
M445.937042,225.449310 
	C445.641418,225.264359 445.345825,225.079407 445.077820,224.970673 
	C445.077820,224.970673 445.131714,224.910080 445.007141,224.278275 
	C444.353027,223.823242 443.698914,223.368225 443.003448,222.981689 
	C443.003448,222.981689 443.078003,222.952606 442.741638,222.367813 
	C440.834045,221.231659 438.926453,220.095490 436.997314,218.998688 
	C436.997314,218.998688 437.038086,218.980118 436.700043,218.364304 
	C433.901367,216.993805 431.215454,215.284241 428.285095,214.309845 
	C413.348267,209.343140 398.586884,211.861938 384.223267,216.559570 
	C380.874115,217.654922 378.600189,222.037949 375.887115,224.843658 
	C375.887115,224.843658 375.802216,224.851395 375.199341,225.218002 
	C369.920685,234.296631 371.260803,242.604797 379.352753,248.484177 
	C381.732910,248.990524 384.234222,250.236313 386.471375,249.869827 
	C394.375702,248.574875 402.189545,246.727951 410.871063,245.074051 
	C415.990662,243.735291 421.110291,242.396530 426.614197,241.065216 
	C426.614197,241.065216 426.982330,240.954544 427.795654,241.018326 
	C434.793732,238.310455 441.791840,235.602570 448.883881,232.912155 
	C448.883881,232.912155 448.901215,232.818176 449.512909,232.523102 
	C449.380341,231.307480 449.247742,230.091873 448.971100,228.384277 
	C448.871521,228.245422 448.771912,228.106567 448.478027,227.440247 
	C447.671478,226.928879 446.864929,226.417511 446.014679,225.972733 
	C446.014679,225.972733 446.093964,225.964920 445.937042,225.449310 
M180.938614,490.991486 
	C180.938614,490.991486 180.899460,491.065796 180.958603,491.708191 
	C181.580734,492.560822 182.202881,493.413483 183.135178,494.819244 
	C184.252274,496.027344 185.369370,497.235474 186.729904,499.074158 
	C189.363922,501.512238 191.997925,503.950317 195.044647,506.887726 
	C196.632019,507.959747 198.219406,509.031799 200.187653,510.690155 
	C206.500870,515.388000 213.868637,517.129700 221.464828,517.965149 
	C225.185547,518.374390 227.752411,516.668579 226.994370,512.462158 
	C225.924545,506.525726 224.545380,500.644989 223.093475,494.065277 
	C221.455231,491.327454 219.816986,488.589661 218.049698,485.173340 
	C215.738464,482.684265 213.427231,480.195190 210.875793,477.559601 
	C210.875793,477.559601 210.628067,477.693054 210.387817,477.029114 
	C205.616837,473.991577 200.845840,470.954071 196.069534,467.966736 
	C196.069534,467.966736 196.053162,467.924072 195.753525,467.395386 
	C195.183670,467.239868 194.613815,467.084351 194.000000,466.997559 
	C194.000000,466.997559 194.044220,466.931793 193.657455,466.330963 
	C188.784012,464.915009 183.910553,463.499084 178.138107,461.990936 
	C176.329239,461.960541 174.519470,461.879059 172.711670,461.910461 
	C169.092148,461.973267 166.887085,462.973236 168.852295,467.251984 
	C170.937302,471.791595 172.768967,476.447540 174.843903,481.660858 
	C175.204803,482.138611 175.565689,482.616364 175.928009,483.001709 
	C175.928009,483.001709 175.875854,483.078003 175.978180,483.769745 
	C177.262619,485.574036 178.547073,487.378326 179.907303,489.117706 
	C179.907303,489.117706 179.810181,489.094666 179.801651,489.723541 
	C180.179276,490.174133 180.556900,490.624695 180.938614,490.991486 
M112.220078,180.829605 
	C111.112198,181.521973 110.004318,182.214355 108.987480,182.957458 
	C108.987480,182.957458 108.938202,182.865616 108.248756,182.885651 
	C107.104607,183.586563 105.960457,184.287476 104.125069,185.069733 
	C102.937592,185.657562 101.660049,186.113388 100.576088,186.852936 
	C83.231499,198.686340 69.920654,214.104141 60.414055,232.758148 
	C59.826862,233.910355 60.937069,236.885025 62.168694,237.855850 
	C72.415047,245.932693 83.952820,251.534683 96.633232,254.674515 
	C116.947006,259.704437 136.117874,257.222839 154.175476,246.258636 
	C166.957153,238.497818 175.680099,226.762619 185.149384,215.730118 
	C188.298309,212.061371 191.181961,208.164932 194.776932,203.627930 
	C190.548233,202.949371 187.655228,202.209503 184.732040,202.060135 
	C163.271164,200.963486 142.952469,205.832382 123.317131,214.102554 
	C109.973038,219.722885 97.350891,226.667450 85.715324,235.287048 
	C82.426407,237.723450 80.694023,236.199966 78.771423,233.776505 
	C76.790703,231.279785 77.328712,228.947617 79.651558,227.316193 
	C89.383110,220.481308 99.230476,213.811325 109.686630,207.123993 
	C110.216614,206.778641 110.746590,206.433304 111.672531,206.050186 
	C111.672531,206.050186 112.035789,205.888153 112.535210,205.824158 
	C112.723358,205.569748 112.911499,205.315353 113.020332,205.070282 
	C113.020332,205.070282 113.049995,205.144440 113.777634,205.197403 
	C115.207336,204.476288 116.637039,203.755173 118.005554,203.007019 
	C118.005554,203.007019 118.006905,203.073898 118.708450,203.084091 
	C119.828438,202.412430 120.948418,201.740753 122.021622,201.004974 
	C122.021622,201.004974 122.023666,201.084320 122.825294,201.165787 
	C127.478958,199.475967 132.132614,197.786148 137.227600,195.411728 
	C140.885040,194.767059 144.592056,194.324295 148.190933,193.440994 
	C160.481552,190.424438 172.926407,188.867020 185.583572,188.966873 
	C186.934204,188.977539 188.286911,188.726608 190.937057,188.472565 
	C183.893173,182.363770 176.644669,179.749817 169.424332,176.983521 
	C157.847778,172.548218 145.841141,174.242966 133.138428,174.050522 
	C127.737320,175.687714 122.336205,177.324921 116.993126,178.994446 
	C116.993126,178.994446 116.991814,178.928024 116.258522,178.910355 
	C115.115143,179.552139 113.971764,180.193909 112.890556,180.921692 
	C112.890556,180.921692 112.908112,180.817032 112.220078,180.829605 
M420.137329,478.137787 
	C420.137329,478.137787 420.442749,478.427521 420.622833,479.159454 
	C420.560730,483.467255 420.450867,487.774963 420.444519,492.082825 
	C420.410706,515.040955 420.373230,537.999146 420.392181,560.957275 
	C420.430359,607.205566 420.481903,653.453857 420.624146,699.701904 
	C420.631805,702.197144 421.523407,704.689575 422.123932,707.786621 
	C430.439911,709.238403 438.747406,710.340271 447.682159,706.810364 
	C448.045258,704.534180 448.722961,702.258240 448.725098,699.981689 
	C448.770935,651.159973 448.736633,602.338257 448.727783,553.516479 
	C448.722687,525.523254 448.800446,497.529724 448.658478,469.537231 
	C448.640259,465.943665 449.795593,464.136749 453.187134,463.135406 
	C458.418549,461.590881 463.599518,459.837677 468.708893,457.924591 
	C487.960114,450.716370 507.464569,443.987152 523.915894,431.040436 
	C547.006165,412.869049 557.070129,389.495941 552.045410,360.154480 
	C550.245972,349.646912 543.698730,338.474182 536.826904,334.406708 
	C536.826904,335.509277 536.839661,336.474426 536.824890,337.439209 
	C536.627808,350.322632 534.486206,362.647919 528.322021,374.268372 
	C517.698303,394.295868 500.587341,406.552826 480.325287,414.830658 
	C458.030060,423.939056 435.390778,432.201324 412.997925,441.075928 
	C394.868835,448.260742 377.675385,457.038666 363.791168,471.264648 
	C342.453735,493.127319 337.207489,520.773926 350.087646,546.455261 
	C354.068665,554.392883 359.258240,561.572998 367.912781,566.567017 
	C367.912781,559.557556 367.929474,553.423218 367.909729,547.288940 
	C367.843689,526.750977 375.209259,509.362488 390.239655,495.372772 
	C398.800446,487.404724 408.444427,481.096985 420.137329,478.137787 
M312.269714,614.888062 
	C315.003540,603.654297 319.047333,592.551147 320.183594,581.158020 
	C322.207611,560.863220 312.090851,544.609680 295.238495,534.898010 
	C281.724213,527.109985 266.996674,529.796570 252.474976,530.695068 
	C241.712357,531.360901 230.906464,531.786438 220.129761,531.631165 
	C210.215179,531.488220 200.321808,530.130005 190.404129,529.863098 
	C182.333542,529.645996 175.096924,533.220154 168.997192,537.944275 
	C151.779465,551.278870 145.112366,569.211914 150.110519,590.333252 
	C153.956696,606.586670 159.451294,622.463806 164.525009,638.408997 
	C169.458160,653.912354 174.130829,669.549438 180.105148,684.658325 
	C188.202606,705.136719 206.198868,713.987793 224.718689,705.549194 
	C233.231934,701.669983 238.673172,702.374023 246.719757,706.066711 
	C260.914124,712.580688 282.060486,706.317322 289.249939,686.624878 
	C297.764618,663.302612 304.589844,639.363525 312.269714,614.888062 
M202.206085,431.271149 
	C205.984680,433.140259 209.701416,435.149048 213.552536,436.854431 
	C230.581650,444.395264 247.170593,443.016541 263.407471,434.298523 
	C277.162262,426.913208 288.220215,416.566376 297.609924,404.184784 
	C309.737549,388.192871 319.274048,371.327545 320.299377,350.532623 
	C321.110565,334.081085 317.176086,319.754913 304.884247,308.282379 
	C291.651398,295.931580 275.930145,294.283722 259.651154,299.467926 
	C252.410645,301.773743 246.036819,307.022186 239.536957,311.337646 
	C236.370438,313.440033 234.142639,314.120728 230.919952,311.327759 
	C224.800949,306.024628 218.266739,301.341187 210.235489,298.997162 
	C188.737503,292.722717 167.224045,300.795593 156.724579,321.369446 
	C148.730194,337.034637 149.685913,353.475525 154.936096,369.836212 
	C159.643982,384.507019 167.509872,397.593384 177.539597,408.989288 
	C184.653122,417.071716 193.713974,423.440308 202.206085,431.271149 
M378.049133,295.537476 
	C364.879211,308.936981 357.949982,324.901825 357.989410,343.817444 
	C358.044922,370.465546 357.998322,397.113831 357.995422,423.762054 
	C357.995209,425.732971 357.995392,427.703888 357.995392,430.609528 
	C360.294922,429.643738 361.939026,429.115997 363.426270,428.301788 
	C372.007080,423.604218 380.367554,418.460907 389.157074,414.199585 
	C398.529022,409.655914 408.253632,405.824402 417.900421,401.867462 
	C426.784027,398.223511 435.684418,394.588867 444.728424,391.375031 
	C458.581055,386.452423 472.365631,381.543549 484.237579,372.454865 
	C503.309753,357.853943 509.344971,337.325867 500.696503,314.629456 
	C495.741058,301.624664 486.771973,291.975342 474.340271,285.400726 
	C465.019501,280.471344 455.365021,277.685425 444.774445,277.944946 
	C436.978851,278.135956 429.169342,278.048889 421.372559,277.841095 
	C404.585510,277.393738 390.841339,284.376404 378.049133,295.537476 
M488.130493,150.697342 
	C494.065765,150.126007 499.998535,149.526566 505.937378,148.995407 
	C508.830231,148.736679 511.482605,149.235672 511.841675,152.757614 
	C512.205383,156.325455 510.307556,158.457657 506.809052,158.968811 
	C501.389801,159.760605 495.924896,160.260696 490.524567,161.156891 
	C471.184937,164.366318 452.297699,169.293076 434.266937,177.071106 
	C427.037598,180.189682 420.106323,183.999130 413.039368,187.494125 
	C413.044342,188.207443 413.049347,188.920776 413.054321,189.634094 
	C419.579742,192.224075 425.986847,195.179565 432.652069,197.337723 
	C455.658295,204.786987 477.215454,201.203995 497.143158,187.809662 
	C514.751526,175.974258 527.122986,159.574707 536.791382,140.979080 
	C539.576111,135.623062 538.338318,133.269089 532.144043,133.051086 
	C516.734375,132.508713 501.216339,131.203415 485.921326,132.434647 
	C473.187683,133.459717 460.600464,137.244980 448.145569,140.550522 
	C433.060181,144.554169 420.096375,153.010056 407.478210,161.880432 
	C404.305115,164.111053 401.638580,167.062195 397.817291,170.515381 
	C400.402649,171.221680 401.860992,172.007797 403.273041,171.931992 
	C407.246460,171.718674 411.373108,171.732300 415.131927,170.618713 
	C429.087860,166.484253 442.825470,161.596375 456.830963,157.651413 
	C466.816010,154.838898 477.098846,153.083527 488.130493,150.697342 
M326.794708,80.284920 
	C299.570099,115.206604 307.093231,162.767990 328.808350,180.300934 
	C329.195160,173.858078 329.813080,167.618271 329.895111,161.371429 
	C330.076660,147.542404 329.956726,133.709686 330.027374,119.878815 
	C330.054688,114.537933 332.843384,111.284416 337.090515,111.363075 
	C341.418671,111.443237 343.965607,114.549416 343.971527,119.923492 
	C343.997314,143.254425 343.993622,166.585388 343.999786,189.916351 
	C344.001404,196.003281 344.000031,202.090225 344.000031,208.177155 
	C344.468811,208.260925 344.937561,208.344696 345.406342,208.428482 
	C360.932373,184.150436 372.615173,158.481018 369.867126,128.582779 
	C367.629303,104.236153 357.209320,83.621979 338.388702,66.538948 
	C334.401642,71.159630 330.746368,75.395805 326.794708,80.284920 
M535.122070,285.553741 
	C539.285522,288.584198 543.722412,290.386230 548.915588,288.467957 
	C550.936035,287.721680 553.043579,287.076843 554.882141,285.995789 
	C562.956299,281.248535 571.403992,276.960907 578.820190,271.327057 
	C584.588379,266.945221 584.247314,259.514893 579.996704,253.385651 
	C574.231079,245.071716 566.769470,238.742065 558.559998,232.894562 
	C535.987122,216.816147 502.389038,218.672958 482.118530,237.670013 
	C481.142822,238.584442 480.681854,240.048111 479.981140,241.255981 
	C481.066803,241.866943 482.101074,242.604813 483.246368,243.068558 
	C491.502655,246.411697 500.184784,246.228241 508.849304,245.984421 
	C514.992249,245.811539 521.130493,245.235596 527.270020,245.246841 
	C532.447021,245.256302 536.273010,248.381470 535.919312,252.317917 
	C535.520874,256.752380 532.278809,258.532227 528.093079,259.102936 
	C521.188293,260.044373 514.294861,261.093414 507.432617,262.301392 
	C506.208527,262.516876 505.158569,263.721436 504.028198,264.469299 
	C504.868317,265.376190 505.565460,266.503387 506.570770,267.155640 
	C515.861755,273.183563 525.205933,279.129486 535.122070,285.553741 
M485.961426,617.538757 
	C490.626251,622.031982 495.087799,626.764587 500.015350,630.948425 
	C504.581543,634.825378 509.527924,634.860962 513.936523,630.845764 
	C520.547363,624.824829 526.920288,618.501404 532.956848,611.906189 
	C536.714844,607.800476 540.289612,603.279846 542.836304,598.369507 
	C546.880737,590.571350 546.381104,582.379761 540.756042,575.461487 
	C535.529785,569.033752 528.302490,565.802246 520.029053,568.202026 
	C515.306213,569.571960 511.080505,572.656128 506.202515,575.191101 
	C505.041016,574.333374 503.101532,573.059814 501.342407,571.572876 
	C495.814423,566.900208 489.346344,566.867737 483.010437,568.556580 
	C468.673340,572.377991 464.047760,588.368530 472.071198,601.062988 
	C475.750336,606.884033 480.948334,611.745117 485.961426,617.538757 
M299.459961,248.078262 
	C301.782959,248.095993 304.117035,248.268631 306.426971,248.103653 
	C314.785217,247.506638 319.238861,242.094223 318.332947,233.788971 
	C317.347900,224.757751 308.614685,216.331360 297.948700,215.982285 
	C276.008148,215.264221 254.040192,215.254486 232.083389,215.245422 
	C225.692520,215.242783 219.667816,217.313309 214.800430,221.730103 
	C209.394241,226.635818 204.111694,231.679474 198.834839,236.725311 
	C196.435120,239.020004 194.453094,242.125168 196.534256,245.012207 
	C197.869385,246.864334 201.153580,248.093552 203.625519,248.202057 
	C212.096893,248.573883 220.595428,248.339706 229.083557,248.314896 
	C252.212158,248.247269 275.340729,248.168533 299.459961,248.078262 
M469.087585,666.241516 
	C469.155029,673.860779 469.517303,681.492371 469.198792,689.095459 
	C468.933044,695.438354 471.184601,702.139709 475.694336,703.571350 
	C491.767212,708.674072 507.716431,709.103699 523.546021,702.060608 
	C544.471802,692.750061 547.513672,674.069580 545.187317,656.033630 
	C544.612915,651.580200 541.840698,648.941467 537.024353,648.956238 
	C526.524719,648.988464 516.024292,648.918396 505.526154,649.047852 
	C504.051544,649.066040 502.587891,649.971802 501.119171,650.466797 
	C501.767761,651.901917 502.208832,653.483337 503.100281,654.747131 
	C507.304016,660.706726 512.042542,666.340698 515.682739,672.617249 
	C516.895508,674.708374 516.326660,679.016968 514.855042,681.096924 
	C513.728149,682.689636 509.705200,683.207336 507.333740,682.651917 
	C505.262207,682.166687 503.533569,679.657593 501.937164,677.799011 
	C494.286774,668.892029 486.770172,659.870178 479.125061,650.958557 
	C476.292328,647.656555 472.416840,648.041199 471.055939,652.235107 
	C469.714111,656.370300 469.685333,660.931580 469.087585,666.241516 
M469.023193,534.327576 
	C469.026062,535.826782 468.917542,537.335999 469.052399,538.823242 
	C469.484222,543.585938 472.941040,547.963501 476.485840,547.973328 
	C495.975464,548.027405 515.465637,548.048340 534.954956,547.949158 
	C539.806885,547.924500 543.871155,544.300110 543.944702,539.651062 
	C544.162659,525.878845 544.219177,512.099365 544.020996,498.327301 
	C543.936768,492.474792 542.118591,491.045929 536.417297,491.025726 
	C524.423767,490.983246 512.429993,490.978058 500.436340,491.000397 
	C499.070190,491.002930 497.704590,491.278809 495.598267,491.508789 
	C498.402985,495.695557 500.659332,499.162292 503.015564,502.559723 
	C507.454437,508.960114 511.903351,515.354797 516.451904,521.677124 
	C517.854065,523.626099 518.991577,525.595337 516.503601,527.178894 
	C514.627869,528.372864 511.930359,529.939880 510.230743,529.389343 
	C507.003296,528.343872 504.219543,525.914673 501.268005,524.034302 
	C493.037506,518.790955 484.932495,513.335754 476.531891,508.381561 
	C473.215271,506.425629 470.132904,507.584320 469.857300,511.983795 
	C469.411377,519.101929 469.284698,526.239990 469.023193,534.327576 
M364.894440,648.958374 
	C363.621033,649.284790 362.313324,649.514709 361.079773,649.953247 
	C352.851257,652.878906 348.259277,661.394348 350.076233,670.275269 
	C351.653442,677.984253 359.308350,683.739563 367.694183,683.521057 
	C377.015045,683.278259 383.627350,677.470581 385.118164,668.950500 
	C386.763184,659.549072 378.989990,647.591858 364.894440,648.958374 
z"/>
<path fill="#F93C06" opacity="1.000000" stroke="none" 
	d="
M312.208496,615.289917 
	C304.589844,639.363525 297.764618,663.302612 289.249939,686.624878 
	C282.060486,706.317322 260.914124,712.580688 246.719757,706.066711 
	C238.673172,702.374023 233.231934,701.669983 224.718689,705.549194 
	C206.198868,713.987793 188.202606,705.136719 180.105148,684.658325 
	C174.130829,669.549438 169.458160,653.912354 164.525009,638.408997 
	C159.451294,622.463806 153.956696,606.586670 150.110519,590.333252 
	C145.112366,569.211914 151.779465,551.278870 168.997192,537.944275 
	C175.096924,533.220154 182.333542,529.645996 190.404129,529.863098 
	C200.321808,530.130005 210.215179,531.488220 220.129761,531.631165 
	C230.906464,531.786438 241.712357,531.360901 252.474976,530.695068 
	C266.996674,529.796570 281.724213,527.109985 295.238495,534.898010 
	C312.090851,544.609680 322.207611,560.863220 320.183594,581.158020 
	C319.047333,592.551147 315.003540,603.654297 312.208496,615.289917 
M246.151138,550.838806 
	C248.387573,556.052429 252.233246,558.506470 257.980255,557.882751 
	C259.628204,557.703918 261.313690,557.904785 262.975006,557.809937 
	C278.868500,556.902649 293.500610,573.582520 291.176666,588.986633 
	C290.216400,595.351624 288.568146,601.634583 286.893646,607.863770 
	C285.258331,613.947266 287.232513,619.198486 292.359558,621.141235 
	C296.686127,622.780701 302.976837,619.663757 304.470123,614.109802 
	C307.692963,602.122986 311.315826,590.235413 309.246063,577.363342 
	C304.840851,549.966919 277.573944,534.488037 254.018646,539.272400 
	C248.372849,540.419067 245.880341,544.045044 246.151138,550.838806 
z"/>
<path fill="#FC2C57" opacity="1.000000" stroke="none" 
	d="
M202.055847,430.922546 
	C193.713974,423.440308 184.653122,417.071716 177.539597,408.989288 
	C167.509872,397.593384 159.643982,384.507019 154.936096,369.836212 
	C149.685913,353.475525 148.730194,337.034637 156.724579,321.369446 
	C167.224045,300.795593 188.737503,292.722717 210.235489,298.997162 
	C218.266739,301.341187 224.800949,306.024628 230.919952,311.327759 
	C234.142639,314.120728 236.370438,313.440033 239.536957,311.337646 
	C246.036819,307.022186 252.410645,301.773743 259.651154,299.467926 
	C275.930145,294.283722 291.651398,295.931580 304.884247,308.282379 
	C317.176086,319.754913 321.110565,334.081085 320.299377,350.532623 
	C319.274048,371.327545 309.737549,388.192871 297.609924,404.184784 
	C288.220215,416.566376 277.162262,426.913208 263.407471,434.298523 
	C247.170593,443.016541 230.581650,444.395264 213.552536,436.854431 
	C209.701416,435.149048 205.984680,433.140259 202.055847,430.922546 
M174.196182,340.825562 
	C181.341156,334.245850 188.668533,327.849792 195.556320,321.011017 
	C199.149353,317.443573 199.046768,312.759155 196.271225,309.860779 
	C192.872116,306.311249 187.373322,305.735413 183.694504,309.133087 
	C178.221832,314.187561 172.791489,319.357544 167.928009,324.983948 
	C162.037704,331.798218 164.630920,338.681396 174.196182,340.825562 
z"/>
<path fill="#FBFBF9" opacity="1.000000" stroke="none" 
	d="
M419.842865,477.836853 
	C408.444427,481.096985 398.800446,487.404724 390.239655,495.372772 
	C375.209259,509.362488 367.843689,526.750977 367.909729,547.288940 
	C367.929474,553.423218 367.912781,559.557556 367.912781,566.567017 
	C359.258240,561.572998 354.068665,554.392883 350.087646,546.455261 
	C337.207489,520.773926 342.453735,493.127319 363.791168,471.264648 
	C377.675385,457.038666 394.868835,448.260742 412.997925,441.075928 
	C435.390778,432.201324 458.030060,423.939056 480.325287,414.830658 
	C500.587341,406.552826 517.698303,394.295868 528.322021,374.268372 
	C534.486206,362.647919 536.627808,350.322632 536.824890,337.439209 
	C536.839661,336.474426 536.826904,335.509277 536.826904,334.406708 
	C543.698730,338.474182 550.245972,349.646912 552.045410,360.154480 
	C557.070129,389.495941 547.006165,412.869049 523.915894,431.040436 
	C507.464569,443.987152 487.960114,450.716370 468.708893,457.924591 
	C463.599518,459.837677 458.418549,461.590881 453.187134,463.135406 
	C449.795593,464.136749 448.640259,465.943665 448.658478,469.537231 
	C448.800446,497.529724 448.722687,525.523254 448.727783,553.516479 
	C448.736633,602.338257 448.770935,651.159973 448.725098,699.981689 
	C448.722961,702.258240 448.045258,704.534180 446.857971,706.916931 
	C438.023682,707.076782 430.013641,707.130066 422.003540,707.183350 
	C421.523407,704.689575 420.631805,702.197144 420.624146,699.701904 
	C420.481903,653.453857 420.430359,607.205566 420.392181,560.957275 
	C420.373230,537.999146 420.410706,515.040955 420.444519,492.082825 
	C420.450867,487.774963 420.560730,483.467255 420.653687,478.630859 
	C420.403961,478.013763 420.123413,477.925323 419.842865,477.836853 
z"/>
<path fill="#04E25A" opacity="1.000000" stroke="none" 
	d="
M378.293152,295.280640 
	C390.841339,284.376404 404.585510,277.393738 421.372559,277.841095 
	C429.169342,278.048889 436.978851,278.135956 444.774445,277.944946 
	C455.365021,277.685425 465.019501,280.471344 474.340271,285.400726 
	C486.771973,291.975342 495.741058,301.624664 500.696503,314.629456 
	C509.344971,337.325867 503.309753,357.853943 484.237579,372.454865 
	C472.365631,381.543549 458.581055,386.452423 444.728424,391.375031 
	C435.684418,394.588867 426.784027,398.223511 417.900421,401.867462 
	C408.253632,405.824402 398.529022,409.655914 389.157074,414.199585 
	C380.367554,418.460907 372.007080,423.604218 363.426270,428.301788 
	C361.939026,429.115997 360.294922,429.643738 357.995392,430.609528 
	C357.995392,427.703888 357.995209,425.732971 357.995422,423.762054 
	C357.998322,397.113831 358.044922,370.465546 357.989410,343.817444 
	C357.949982,324.901825 364.879211,308.936981 378.293152,295.280640 
M413.833527,309.021271 
	C422.269440,308.675568 430.703094,308.252991 439.141968,308.009521 
	C445.393738,307.829163 448.649597,305.462585 448.962067,300.525940 
	C449.339935,294.556519 446.284760,290.497589 440.303558,289.900299 
	C434.363464,289.307159 428.362000,288.994873 422.394257,289.074219 
	C403.711212,289.322510 388.861328,297.089508 379.529541,313.378754 
	C376.091827,319.379486 374.401672,326.598816 373.021454,333.484222 
	C372.103546,338.063232 376.048584,342.172272 380.140076,342.835236 
	C385.451721,343.695953 388.904541,341.469604 390.616150,336.065369 
	C391.217651,334.166260 391.765778,332.249969 392.382721,330.355988 
	C395.784241,319.913483 402.389954,312.606323 413.833527,309.021271 
z"/>
<path fill="#05E15B" opacity="1.000000" stroke="none" 
	d="
M133.952209,174.134521 
	C145.841141,174.242966 157.847778,172.548218 169.424332,176.983521 
	C176.644669,179.749817 183.893173,182.363770 190.937057,188.472565 
	C188.286911,188.726608 186.934204,188.977539 185.583572,188.966873 
	C172.926407,188.867020 160.481552,190.424438 148.190933,193.440994 
	C144.592056,194.324295 140.885040,194.767059 136.603348,195.723175 
	C131.014191,196.852585 125.555252,196.305222 122.023666,201.084320 
	C122.023666,201.084320 122.021622,201.004974 121.687912,201.004608 
	C120.238426,201.694122 119.122665,202.384003 118.006905,203.073898 
	C118.006905,203.073898 118.005554,203.007019 117.669739,202.993347 
	C115.905952,203.701248 114.477974,204.422852 113.050003,205.144440 
	C113.049995,205.144440 113.020332,205.070282 112.834290,205.135193 
	C112.349625,205.345367 112.145470,205.574722 112.035789,205.888153 
	C112.035789,205.888153 111.672531,206.050186 111.136353,206.053253 
	C110.078583,206.397842 109.556999,206.739380 109.035408,207.080917 
	C99.230476,213.811325 89.383110,220.481308 79.651558,227.316193 
	C77.328712,228.947617 76.790703,231.279785 78.771423,233.776505 
	C80.694023,236.199966 82.426407,237.723450 85.715324,235.287048 
	C97.350891,226.667450 109.973038,219.722885 123.317131,214.102554 
	C142.952469,205.832382 163.271164,200.963486 184.732040,202.060135 
	C187.655228,202.209503 190.548233,202.949371 194.776932,203.627930 
	C191.181961,208.164932 188.298309,212.061371 185.149384,215.730118 
	C175.680099,226.762619 166.957153,238.497818 154.175476,246.258636 
	C136.117874,257.222839 116.947006,259.704437 96.633232,254.674515 
	C83.952820,251.534683 72.415047,245.932693 62.168694,237.855850 
	C60.937069,236.885025 59.826862,233.910355 60.414055,232.758148 
	C69.920654,214.104141 83.231499,198.686340 100.576088,186.852936 
	C101.660049,186.113388 102.937592,185.657562 104.842194,185.030334 
	C106.685608,184.282501 107.811905,183.574051 108.938202,182.865601 
	C108.938202,182.865616 108.987480,182.957458 109.289024,182.936310 
	C110.696419,182.215790 111.802261,181.516403 112.908112,180.817032 
	C112.908112,180.817032 112.890556,180.921692 113.210335,180.903091 
	C114.684013,180.232330 115.837914,179.580185 116.991814,178.928024 
	C116.991814,178.928024 116.993126,178.994446 117.380821,179.003021 
	C123.163078,177.385910 128.557648,175.760208 133.952209,174.134521 
z"/>
<path fill="#05E05B" opacity="1.000000" stroke="none" 
	d="
M487.689636,150.776886 
	C477.098846,153.083527 466.816010,154.838898 456.830963,157.651413 
	C442.825470,161.596375 429.087860,166.484253 415.131927,170.618713 
	C411.373108,171.732300 407.246460,171.718674 403.273041,171.931992 
	C401.860992,172.007797 400.402649,171.221680 397.817291,170.515381 
	C401.638580,167.062195 404.305115,164.111053 407.478210,161.880432 
	C420.096375,153.010056 433.060181,144.554169 448.145569,140.550522 
	C460.600464,137.244980 473.187683,133.459717 485.921326,132.434647 
	C501.216339,131.203415 516.734375,132.508713 532.144043,133.051086 
	C538.338318,133.269089 539.576111,135.623062 536.791382,140.979080 
	C527.122986,159.574707 514.751526,175.974258 497.143158,187.809662 
	C477.215454,201.203995 455.658295,204.786987 432.652069,197.337723 
	C425.986847,195.179565 419.579742,192.224075 413.054321,189.634094 
	C413.049347,188.920776 413.044342,188.207443 413.039368,187.494125 
	C420.106323,183.999130 427.037598,180.189682 434.266937,177.071106 
	C452.297699,169.293076 471.184937,164.366318 490.524567,161.156891 
	C495.924896,160.260696 501.389801,159.760605 506.809052,158.968811 
	C510.307556,158.457657 512.205383,156.325455 511.841675,152.757614 
	C511.482605,149.235672 508.830231,148.736679 505.937378,148.995407 
	C499.998535,149.526566 494.065765,150.126007 487.689636,150.776886 
z"/>
<path fill="#04E15B" opacity="1.000000" stroke="none" 
	d="
M326.942902,79.958450 
	C330.746368,75.395805 334.401642,71.159630 338.388702,66.538948 
	C357.209320,83.621979 367.629303,104.236153 369.867126,128.582779 
	C372.615173,158.481018 360.932373,184.150436 345.406342,208.428482 
	C344.937561,208.344696 344.468811,208.260925 344.000031,208.177155 
	C344.000031,202.090225 344.001404,196.003281 343.999786,189.916351 
	C343.993622,166.585388 343.997314,143.254425 343.971527,119.923492 
	C343.965607,114.549416 341.418671,111.443237 337.090515,111.363075 
	C332.843384,111.284416 330.054688,114.537933 330.027374,119.878815 
	C329.956726,133.709686 330.076660,147.542404 329.895111,161.371429 
	C329.813080,167.618271 329.195160,173.858078 328.808350,180.300934 
	C307.093231,162.767990 299.570099,115.206604 326.942902,79.958450 
z"/>
<path fill="#04E15B" opacity="1.000000" stroke="none" 
	d="
M534.828369,285.326477 
	C525.205933,279.129486 515.861755,273.183563 506.570770,267.155640 
	C505.565460,266.503387 504.868317,265.376190 504.028198,264.469299 
	C505.158569,263.721436 506.208527,262.516876 507.432617,262.301392 
	C514.294861,261.093414 521.188293,260.044373 528.093079,259.102936 
	C532.278809,258.532227 535.520874,256.752380 535.919312,252.317917 
	C536.273010,248.381470 532.447021,245.256302 527.270020,245.246841 
	C521.130493,245.235596 514.992249,245.811539 508.849304,245.984421 
	C500.184784,246.228241 491.502655,246.411697 483.246368,243.068558 
	C482.101074,242.604813 481.066803,241.866943 479.981140,241.255981 
	C480.681854,240.048111 481.142822,238.584442 482.118530,237.670013 
	C502.389038,218.672958 535.987122,216.816147 558.559998,232.894562 
	C566.769470,238.742065 574.231079,245.071716 579.996704,253.385651 
	C584.247314,259.514893 584.588379,266.945221 578.820190,271.327057 
	C571.403992,276.960907 562.956299,281.248535 554.882141,285.995789 
	C553.043579,287.076843 550.936035,287.721680 548.915588,288.467957 
	C543.722412,290.386230 539.285522,288.584198 534.828369,285.326477 
z"/>
<path fill="#FDFDFB" opacity="1.000000" stroke="none" 
	d="
M485.709503,617.290161 
	C480.948334,611.745117 475.750336,606.884033 472.071198,601.062988 
	C464.047760,588.368530 468.673340,572.377991 483.010437,568.556580 
	C489.346344,566.867737 495.814423,566.900208 501.342407,571.572876 
	C503.101532,573.059814 505.041016,574.333374 506.202515,575.191101 
	C511.080505,572.656128 515.306213,569.571960 520.029053,568.202026 
	C528.302490,565.802246 535.529785,569.033752 540.756042,575.461487 
	C546.381104,582.379761 546.880737,590.571350 542.836304,598.369507 
	C540.289612,603.279846 536.714844,607.800476 532.956848,611.906189 
	C526.920288,618.501404 520.547363,624.824829 513.936523,630.845764 
	C509.527924,634.860962 504.581543,634.825378 500.015350,630.948425 
	C495.087799,626.764587 490.626251,622.031982 485.709503,617.290161 
z"/>
<path fill="#FCFCFB" opacity="1.000000" stroke="none" 
	d="
M298.964661,248.086243 
	C275.340729,248.168533 252.212158,248.247269 229.083557,248.314896 
	C220.595428,248.339706 212.096893,248.573883 203.625519,248.202057 
	C201.153580,248.093552 197.869385,246.864334 196.534256,245.012207 
	C194.453094,242.125168 196.435120,239.020004 198.834839,236.725311 
	C204.111694,231.679474 209.394241,226.635818 214.800430,221.730103 
	C219.667816,217.313309 225.692520,215.242783 232.083389,215.245422 
	C254.040192,215.254486 276.008148,215.264221 297.948700,215.982285 
	C308.614685,216.331360 317.347900,224.757751 318.332947,233.788971 
	C319.238861,242.094223 314.785217,247.506638 306.426971,248.103653 
	C304.117035,248.268631 301.782959,248.095993 298.964661,248.086243 
z"/>
<path fill="#04E05A" opacity="1.000000" stroke="none" 
	d="
M469.084045,665.773682 
	C469.685333,660.931580 469.714111,656.370300 471.055939,652.235107 
	C472.416840,648.041199 476.292328,647.656555 479.125061,650.958557 
	C486.770172,659.870178 494.286774,668.892029 501.937164,677.799011 
	C503.533569,679.657593 505.262207,682.166687 507.333740,682.651917 
	C509.705200,683.207336 513.728149,682.689636 514.855042,681.096924 
	C516.326660,679.016968 516.895508,674.708374 515.682739,672.617249 
	C512.042542,666.340698 507.304016,660.706726 503.100281,654.747131 
	C502.208832,653.483337 501.767761,651.901917 501.119171,650.466797 
	C502.587891,649.971802 504.051544,649.066040 505.526154,649.047852 
	C516.024292,648.918396 526.524719,648.988464 537.024353,648.956238 
	C541.840698,648.941467 544.612915,651.580200 545.187317,656.033630 
	C547.513672,674.069580 544.471802,692.750061 523.546021,702.060608 
	C507.716431,709.103699 491.767212,708.674072 475.694336,703.571350 
	C471.184601,702.139709 468.933044,695.438354 469.198792,689.095459 
	C469.517303,681.492371 469.155029,673.860779 469.084045,665.773682 
z"/>
<path fill="#04E15A" opacity="1.000000" stroke="none" 
	d="
M469.023224,533.848633 
	C469.284698,526.239990 469.411377,519.101929 469.857300,511.983795 
	C470.132904,507.584320 473.215271,506.425629 476.531891,508.381561 
	C484.932495,513.335754 493.037506,518.790955 501.268005,524.034302 
	C504.219543,525.914673 507.003296,528.343872 510.230743,529.389343 
	C511.930359,529.939880 514.627869,528.372864 516.503601,527.178894 
	C518.991577,525.595337 517.854065,523.626099 516.451904,521.677124 
	C511.903351,515.354797 507.454437,508.960114 503.015564,502.559723 
	C500.659332,499.162292 498.402985,495.695557 495.598267,491.508789 
	C497.704590,491.278809 499.070190,491.002930 500.436340,491.000397 
	C512.429993,490.978058 524.423767,490.983246 536.417297,491.025726 
	C542.118591,491.045929 543.936768,492.474792 544.020996,498.327301 
	C544.219177,512.099365 544.162659,525.878845 543.944702,539.651062 
	C543.871155,544.300110 539.806885,547.924500 534.954956,547.949158 
	C515.465637,548.048340 495.975464,548.027405 476.485840,547.973328 
	C472.941040,547.963501 469.484222,543.585938 469.052399,538.823242 
	C468.917542,537.335999 469.026062,535.826782 469.023224,533.848633 
z"/>
<path fill="#19E55D" opacity="1.000000" stroke="none" 
	d="
M410.037720,245.090332 
	C402.189545,246.727951 394.375702,248.574875 386.471375,249.869827 
	C384.234222,250.236313 381.732910,248.990524 379.148315,247.807922 
	C378.605408,246.111099 378.574310,244.743988 377.878265,244.126587 
	C373.571075,240.306168 372.673279,235.847046 374.629364,230.531387 
	C375.289642,228.737167 375.426270,226.750244 375.802216,224.851395 
	C375.802216,224.851395 375.887115,224.843658 376.187347,224.791229 
	C381.594818,221.991379 386.702087,219.243942 392.659241,216.039322 
	C391.848938,219.264252 391.465668,220.789719 390.940277,222.880768 
	C395.148346,220.740784 398.446838,219.063339 402.519531,216.992203 
	C400.255219,216.238647 398.873932,215.778961 397.492645,215.319275 
	C397.539551,215.087311 397.586426,214.855347 397.633301,214.623383 
	C401.888733,214.623383 406.144165,214.623383 410.399597,214.623383 
	C410.410400,214.926636 410.421204,215.229889 410.432007,215.533142 
	C408.466705,215.864471 406.501404,216.195801 404.536102,216.527130 
	C404.562988,217.006546 404.589844,217.485947 404.616730,217.965363 
	C408.655731,217.965363 412.694702,217.965363 418.126770,217.965363 
	C415.767639,216.401260 414.627197,215.645157 413.486786,214.889069 
	C413.614899,214.520370 413.743011,214.151688 413.871094,213.783005 
	C416.578705,214.187149 419.286285,214.591293 422.056763,215.352341 
	C424.198029,216.770767 426.276398,217.832275 428.225586,218.827820 
	C422.627960,223.372208 428.996155,228.620209 427.452393,233.367783 
	C425.712677,234.057388 423.971375,234.750717 422.239166,235.440414 
	C423.335449,237.598862 424.172546,239.247040 424.591583,240.939056 
	C419.461578,242.352051 414.749634,243.721191 410.037720,245.090332 
z"/>
<path fill="#1CE058" opacity="1.000000" stroke="none" 
	d="
M302.014801,464.002686 
	C302.132019,465.449921 302.249237,466.897156 302.096252,468.891693 
	C301.550507,469.896545 301.274963,470.354065 300.999451,470.811615 
	C300.999451,470.811615 300.961823,470.966156 300.605652,471.170044 
	C299.569641,473.313690 298.889832,475.253387 298.210022,477.193115 
	C298.210022,477.193115 298.182831,477.213989 297.807404,477.153809 
	C294.381927,482.474915 291.331879,487.856201 288.281799,493.237457 
	C288.281799,493.237457 288.216339,493.240082 287.869019,493.284698 
	C287.022675,494.568878 286.523651,495.808411 286.024628,497.047943 
	C286.024628,497.047943 285.999939,497.000153 285.688843,497.034363 
	C284.932617,497.734131 284.487457,498.399689 284.042328,499.065247 
	C284.042328,499.065247 284.013184,498.996948 283.697937,499.034027 
	C282.948944,499.772247 282.515228,500.473389 282.081482,501.174530 
	C276.791290,507.888763 269.533752,511.637054 261.756378,514.555054 
	C259.141418,515.536194 256.433258,516.268799 252.963470,517.079468 
	C249.715515,516.747009 247.271805,516.450012 244.828094,516.153015 
	C244.828094,516.153015 245.011139,516.039490 244.966125,515.693665 
	C244.920044,511.207672 244.918976,507.067535 244.917908,502.927368 
	C244.917908,502.927368 244.907043,503.004974 245.229858,502.845093 
	C246.379669,500.465271 247.206680,498.245361 248.271210,496.108337 
	C248.929092,496.154572 249.349472,496.117889 249.769836,496.081238 
	C249.499207,495.712006 249.228561,495.342804 248.972321,494.627258 
	C249.629822,493.501526 250.272903,492.722168 251.269958,492.014893 
	C252.471329,493.484222 253.318741,494.881531 254.446259,496.740753 
	C256.702667,495.109314 258.853180,493.554443 261.301697,492.144501 
	C263.511230,493.920227 265.107300,494.715454 265.352661,490.967834 
	C270.733978,487.528534 275.765106,484.126312 280.907318,480.648956 
	C279.756256,479.051208 278.946289,477.926910 277.419495,475.807617 
	C280.640167,475.807617 282.999268,476.191895 285.138763,475.672180 
	C286.559723,475.327026 287.666687,473.689301 288.914215,472.630127 
	C287.556000,471.754761 286.275177,470.709778 284.820282,470.046448 
	C282.948303,469.192993 280.936768,468.645569 279.215271,467.951080 
	C279.445221,467.935822 279.905975,467.925415 280.170654,467.807129 
	C280.635010,467.164703 280.834686,466.640625 281.390381,466.094269 
	C283.124847,466.351349 284.503265,466.630646 286.253448,466.934082 
	C288.087524,465.651245 289.549866,464.344238 291.255554,463.024048 
	C291.498962,463.010864 291.986053,462.990265 292.214417,462.878357 
	C292.610718,462.479340 292.778687,462.192200 292.946625,461.905060 
	C292.946625,461.905060 292.977081,461.913849 293.384338,461.948517 
	C296.532684,462.656342 299.273743,463.329529 302.014801,464.002686 
M299.516602,466.409637 
	C299.516602,466.409637 299.583740,466.522186 299.516602,466.409637 
z"/>
<path fill="#FCFCFA" opacity="1.000000" stroke="none" 
	d="
M365.328491,648.953125 
	C378.989990,647.591858 386.763184,659.549072 385.118164,668.950500 
	C383.627350,677.470581 377.015045,683.278259 367.694183,683.521057 
	C359.308350,683.739563 351.653442,677.984253 350.076233,670.275269 
	C348.259277,661.394348 352.851257,652.878906 361.079773,649.953247 
	C362.313324,649.514709 363.621033,649.284790 365.328491,648.953125 
z"/>
<path fill="#2EE866" opacity="1.000000" stroke="none" 
	d="
M210.628067,477.693054 
	C210.628067,477.693054 210.875793,477.559601 210.951279,477.966248 
	C211.011871,478.595306 210.996979,478.817657 210.662506,479.067627 
	C209.890930,479.726898 209.438919,480.358582 208.567444,480.992920 
	C206.034393,480.851776 203.920807,480.707977 202.021637,480.578735 
	C200.928131,481.942749 199.906143,483.312286 198.786591,484.596832 
	C194.894608,489.062439 190.968842,493.498596 186.912323,498.068970 
	C186.768738,498.191956 186.486465,498.443604 186.486465,498.443604 
	C185.369370,497.235474 184.252274,496.027344 183.033264,494.163513 
	C182.254074,492.693756 181.576767,491.879791 180.899460,491.065796 
	C180.899460,491.065796 180.938614,490.991486 180.946945,490.714569 
	C180.573578,489.989990 180.191879,489.542328 179.810181,489.094666 
	C179.810181,489.094666 179.907303,489.117706 179.891327,488.777985 
	C178.542191,486.651520 177.209015,484.864746 175.875854,483.078003 
	C175.875854,483.078003 175.928009,483.001709 175.932251,482.713043 
	C175.528076,481.967133 175.119675,481.509888 174.711273,481.052673 
	C172.768967,476.447540 170.937302,471.791595 168.852295,467.251984 
	C166.887085,462.973236 169.092148,461.973267 172.711670,461.910461 
	C174.519470,461.879059 176.329239,461.960541 178.816895,462.290222 
	C184.345184,464.036957 189.194702,465.484375 194.044220,466.931793 
	C194.044220,466.931793 194.000000,466.997559 194.167847,467.234009 
	C194.908188,467.621674 195.480667,467.772858 196.053162,467.924072 
	C196.053162,467.924072 196.069534,467.966736 196.101959,468.312439 
	C199.364197,474.238739 205.706223,474.826782 210.628067,477.693054 
M187.297791,491.430542 
	C187.010971,491.704376 186.724152,491.978210 186.437302,492.252014 
	C186.550827,492.370697 186.756790,492.598755 186.764557,492.592194 
	C187.067001,492.336700 187.351364,492.059784 187.297791,491.430542 
z"/>
<path fill="#24E262" opacity="1.000000" stroke="none" 
	d="
M278.985352,467.966370 
	C280.936768,468.645569 282.948303,469.192993 284.820282,470.046448 
	C286.275177,470.709778 287.556000,471.754761 288.914215,472.630127 
	C287.666687,473.689301 286.559723,475.327026 285.138763,475.672180 
	C282.999268,476.191895 280.640167,475.807617 277.419495,475.807617 
	C278.946289,477.926910 279.756256,479.051208 280.907318,480.648956 
	C275.765106,484.126312 270.733978,487.528534 264.988647,490.897430 
	C261.868439,488.557495 263.094452,482.401184 256.983826,483.983948 
	C256.966095,483.965485 256.929840,483.929352 256.946228,483.558472 
	C257.278168,481.750671 257.593658,480.313751 257.909149,478.876862 
	C257.909149,478.876862 257.980957,478.933716 258.190674,478.859314 
	C258.588837,478.495300 258.777222,478.205719 258.965637,477.916107 
	C258.965637,477.916107 258.988983,477.985840 259.201599,477.892212 
	C259.606812,477.518005 259.799408,477.237396 259.991974,476.956818 
	C259.991974,476.956818 260.000427,477.003021 260.293274,476.985413 
	C261.017975,476.584442 261.449799,476.201080 261.881592,475.817719 
	C261.881592,475.817719 261.814331,475.863983 262.195068,475.892212 
	C263.403168,474.951019 264.230591,473.981598 265.057983,473.012207 
	C265.057983,473.012207 265.317474,472.853455 265.819824,472.883881 
	C266.823090,472.537750 267.324036,472.161194 267.824951,471.784637 
	C267.824951,471.784637 267.808746,471.740845 268.185181,471.791016 
	C272.036194,470.549591 275.510773,469.257996 278.985352,467.966370 
z"/>
<path fill="#11DF57" opacity="1.000000" stroke="none" 
	d="
M425.009674,240.895218 
	C424.172546,239.247040 423.335449,237.598862 422.239166,235.440414 
	C423.971375,234.750717 425.712677,234.057388 427.452393,233.367783 
	C428.996155,228.620209 422.627960,223.372208 428.225586,218.827820 
	C426.276398,217.832275 424.198029,216.770767 422.467194,215.353149 
	C427.555847,216.324753 432.296967,217.652435 437.038086,218.980118 
	C437.038086,218.980118 436.997314,218.998688 436.998322,219.360138 
	C436.660614,225.247818 441.271393,221.462433 443.078003,222.952606 
	C443.078003,222.952606 443.003448,222.981689 443.049683,223.286667 
	C443.774536,224.031128 444.453125,224.470612 445.131714,224.910095 
	C445.131714,224.910080 445.077820,224.970673 445.156189,225.180756 
	C445.520996,225.582184 445.807495,225.773560 446.093964,225.964920 
	C446.093964,225.964920 446.014679,225.972733 446.055481,226.273773 
	C446.954987,227.039108 447.813660,227.503403 448.672333,227.967712 
	C448.771912,228.106567 448.871521,228.245422 449.002594,229.024902 
	C448.989807,230.716415 448.945526,231.767288 448.901215,232.818176 
	C448.901215,232.818176 448.883881,232.912155 448.445679,232.930756 
	C441.685760,234.975235 435.364044,237.001099 428.739960,239.035904 
	C427.958282,239.356873 427.478943,239.668930 426.990662,240.224274 
	C426.981720,240.467590 426.982330,240.954544 426.982330,240.954544 
	C426.982330,240.954544 426.614197,241.065216 426.117188,241.013565 
	C425.416687,240.939667 425.213196,240.917435 425.009674,240.895218 
z"/>
<path fill="#1BDD6E" opacity="1.000000" stroke="none" 
	d="
M436.869080,218.672211 
	C432.296967,217.652435 427.555847,216.324753 422.404297,214.996246 
	C419.286285,214.591293 416.578705,214.187149 413.871094,213.783005 
	C413.743011,214.151688 413.614899,214.520370 413.486786,214.889069 
	C414.627197,215.645157 415.767639,216.401260 418.126770,217.965363 
	C412.694702,217.965363 408.655731,217.965363 404.616730,217.965363 
	C404.589844,217.485947 404.562988,217.006546 404.536102,216.527130 
	C406.501404,216.195801 408.466705,215.864471 410.432007,215.533142 
	C410.421204,215.229889 410.410400,214.926636 410.399597,214.623383 
	C406.144165,214.623383 401.888733,214.623383 397.633301,214.623383 
	C397.586426,214.855347 397.539551,215.087311 397.492645,215.319275 
	C398.873932,215.778961 400.255219,216.238647 402.519531,216.992203 
	C398.446838,219.063339 395.148346,220.740784 390.940277,222.880768 
	C391.465668,220.789719 391.848938,219.264252 392.659241,216.039322 
	C386.702087,219.243942 381.594818,221.991379 376.159546,224.823547 
	C378.600189,222.037949 380.874115,217.654922 384.223267,216.559570 
	C398.586884,211.861938 413.348267,209.343140 428.285095,214.309845 
	C431.215454,215.284241 433.901367,216.993805 436.869080,218.672211 
z"/>
<path fill="#18E068" opacity="1.000000" stroke="none" 
	d="
M230.924759,284.690491 
	C230.924759,284.690491 230.919922,284.362183 231.340134,284.133057 
	C232.497925,281.591339 233.235504,279.278778 233.973083,276.966217 
	C234.429169,276.257477 234.885239,275.548737 235.834930,275.136841 
	C236.923996,275.580231 237.519409,275.726776 238.114822,275.873291 
	C238.114822,275.873291 238.016052,275.948456 238.170990,276.182953 
	C238.905197,276.596558 239.484467,276.775665 240.063751,276.954773 
	C240.063751,276.954773 240.004669,276.991058 240.175674,277.260071 
	C241.593048,279.386169 242.839432,281.243225 244.085815,283.100311 
	C244.085800,283.100311 244.063980,282.994141 243.748291,283.046387 
	C243.007431,283.785889 242.582260,284.473175 242.157104,285.160492 
	C242.157104,285.160492 242.098053,285.014801 241.761566,285.058167 
	C239.573776,287.352600 237.722504,289.603668 235.032898,292.874146 
	C233.414154,289.649506 232.169449,287.170013 230.924759,284.690491 
z"/>
<path fill="#2EC878" opacity="1.000000" stroke="none" 
	d="
M223.298462,494.740448 
	C224.545380,500.644989 225.924545,506.525726 226.994370,512.462158 
	C227.752411,516.668579 225.185547,518.374390 221.464828,517.965149 
	C213.868637,517.129700 206.500870,515.388000 200.293762,510.343689 
	C200.598953,509.973053 200.798019,509.948822 201.329742,509.952637 
	C202.106552,510.006165 202.550705,510.031647 203.235886,510.319794 
	C207.719360,512.345642 211.835434,514.569275 216.230667,515.775818 
	C225.252670,518.252441 226.137207,514.963623 225.763092,505.888092 
	C225.717194,504.774475 224.965897,503.707275 224.688461,502.582336 
	C224.069366,500.072083 223.543152,497.538910 223.058441,494.945831 
	C223.137787,494.876587 223.298462,494.740448 223.298462,494.740448 
z"/>
<path fill="#32C87F" opacity="1.000000" stroke="none" 
	d="
M257.589722,478.973816 
	C257.593658,480.313751 257.278168,481.750671 256.604279,483.611481 
	C254.469284,486.671204 252.692642,489.307037 250.915985,491.942841 
	C250.272903,492.722168 249.629822,493.501526 248.758438,494.743225 
	C248.263535,495.417603 248.098053,495.690887 248.033691,496.025421 
	C247.206680,498.245361 246.379669,500.465271 245.206802,502.813416 
	C245.978424,493.415253 250.599609,485.710327 257.589722,478.973816 
z"/>
<path fill="#37C987" opacity="1.000000" stroke="none" 
	d="
M375.500793,225.034698 
	C375.426270,226.750244 375.289642,228.737167 374.629364,230.531387 
	C372.673279,235.847046 373.571075,240.306168 377.878265,244.126587 
	C378.574310,244.743988 378.605408,246.111099 378.898041,247.498138 
	C371.260803,242.604797 369.920685,234.296631 375.500793,225.034698 
z"/>
<path fill="#26CC76" opacity="1.000000" stroke="none" 
	d="
M429.042297,239.026978 
	C435.364044,237.001099 441.685760,234.975235 448.398712,232.922028 
	C441.791840,235.602570 434.793732,238.310455 427.388977,240.986435 
	C426.982330,240.954544 426.981720,240.467590 427.289886,240.211426 
	C428.079468,239.645828 428.560883,239.336395 429.042297,239.026978 
z"/>
<path fill="#32C87F" opacity="1.000000" stroke="none" 
	d="
M279.215271,467.951111 
	C275.510773,469.257996 272.036194,470.549591 268.184387,471.767700 
	C274.549561,468.741272 281.291992,465.788361 288.486267,462.881317 
	C288.938141,462.927155 289.036438,463.053223 288.839355,463.310791 
	C287.722046,464.682190 286.801880,465.796082 285.881714,466.909973 
	C284.503265,466.630646 283.124847,466.351349 281.132568,466.216919 
	C280.314453,466.882996 280.110199,467.404205 279.905945,467.925415 
	C279.905975,467.925415 279.445221,467.935822 279.215271,467.951111 
z"/>
<path fill="#0C2E3B" opacity="1.000000" stroke="none" 
	d="
M422.063751,707.484985 
	C430.013641,707.130066 438.023682,707.076782 446.492432,707.102661 
	C438.747406,710.340271 430.439911,709.238403 422.063751,707.484985 
z"/>
<path fill="#2EC878" opacity="1.000000" stroke="none" 
	d="
M210.507935,477.361084 
	C205.706223,474.826782 199.364197,474.238739 196.104614,468.287354 
	C200.845840,470.954071 205.616837,473.991577 210.507935,477.361084 
z"/>
<path fill="#2BCD7F" opacity="1.000000" stroke="none" 
	d="
M288.611511,493.177338 
	C291.331879,487.856201 294.381927,482.474915 297.829407,477.153992 
	C295.131622,482.515350 292.036438,487.816284 288.611511,493.177338 
z"/>
<path fill="#34C989" opacity="1.000000" stroke="none" 
	d="
M230.643356,284.966064 
	C232.169449,287.170013 233.414154,289.649506 235.032898,292.874146 
	C237.722504,289.603668 239.573776,287.352600 241.798004,285.131836 
	C240.392761,288.227203 238.614563,291.292236 236.657242,294.666046 
	C232.552933,292.084564 228.675461,290.499420 230.643356,284.966064 
z"/>
<path fill="#2EE866" opacity="1.000000" stroke="none" 
	d="
M194.631927,506.388397 
	C191.997925,503.950317 189.363922,501.512238 186.608185,498.758881 
	C186.486465,498.443604 186.768738,498.191956 187.259018,498.051758 
	C190.914917,496.526825 192.140503,497.812653 191.850952,501.048676 
	C191.810287,501.073212 191.908920,501.041473 192.282333,501.203918 
	C193.388412,502.915039 194.219727,504.431915 194.945541,506.058044 
	C194.840042,506.167236 194.631943,506.388397 194.631927,506.388397 
z"/>
<path fill="#31CE7C" opacity="1.000000" stroke="none" 
	d="
M122.424484,201.125061 
	C125.555252,196.305222 131.014191,196.852585 136.382690,196.065460 
	C132.132614,197.786148 127.478958,199.475967 122.424484,201.125061 
z"/>
<path fill="#26CC77" opacity="1.000000" stroke="none" 
	d="
M133.545319,174.092514 
	C128.557648,175.760208 123.163078,177.385910 117.351807,178.986877 
	C122.336205,177.324921 127.737320,175.687714 133.545319,174.092514 
z"/>
<path fill="#2EC878" opacity="1.000000" stroke="none" 
	d="
M193.850830,466.631378 
	C189.194702,465.484375 184.345184,464.036957 179.266388,462.336365 
	C183.910553,463.499084 188.784012,464.915009 193.850830,466.631378 
z"/>
<path fill="#26CC76" opacity="1.000000" stroke="none" 
	d="
M424.591583,240.939056 
	C425.213196,240.917435 425.416687,240.939667 425.925049,241.009857 
	C421.110291,242.396530 415.990662,243.735291 410.454407,245.082184 
	C414.749634,243.721191 419.461578,242.352051 424.591583,240.939056 
z"/>
<path fill="#2EC878" opacity="1.000000" stroke="none" 
	d="
M210.982086,479.040039 
	C210.996979,478.817657 211.011871,478.595306 211.071381,478.039520 
	C213.427231,480.195190 215.738464,482.684265 218.042755,485.570129 
	C218.035797,485.966949 217.891708,486.080658 217.601257,485.920044 
	C215.201233,483.519653 213.091660,481.279846 210.982086,479.040039 
z"/>
<path fill="#32C87F" opacity="1.000000" stroke="none" 
	d="
M244.621277,503.178711 
	C244.918976,507.067535 244.920044,511.207672 244.879868,515.758911 
	C244.262543,513.840515 243.355789,511.530914 243.214996,509.175476 
	C243.102249,507.289185 243.919907,505.347260 244.621277,503.178711 
z"/>
<path fill="#2EC878" opacity="1.000000" stroke="none" 
	d="
M218.107269,485.909393 
	C219.816986,488.589661 221.455231,491.327454 223.195969,494.402863 
	C223.298462,494.740448 223.137787,494.876587 222.775635,494.797241 
	C221.591141,493.488037 220.768814,492.258118 219.809494,490.714539 
	C219.078903,488.960815 218.485306,487.520721 217.891708,486.080658 
	C217.891708,486.080658 218.035797,485.966949 218.107269,485.909393 
z"/>
<path fill="#1BDD6E" opacity="1.000000" stroke="none" 
	d="
M442.909821,222.660217 
	C441.271393,221.462433 436.660614,225.247818 437.009094,219.340454 
	C438.926453,220.095490 440.834045,221.231659 442.909821,222.660217 
z"/>
<path fill="#34C989" opacity="1.000000" stroke="none" 
	d="
M244.406021,282.948639 
	C242.839432,281.243225 241.593048,279.386169 240.180542,277.225769 
	C245.759583,277.723877 246.578827,278.745300 244.406021,282.948639 
z"/>
<path fill="#24E262" opacity="1.000000" stroke="none" 
	d="
M301.998810,463.620178 
	C299.273743,463.329529 296.532684,462.656342 293.374634,461.960663 
	C296.259003,460.336548 299.358582,460.136444 301.998810,463.620178 
z"/>
<path fill="#46CE82" opacity="1.000000" stroke="none" 
	d="
M175.927017,483.423889 
	C177.209015,484.864746 178.542191,486.651520 179.853455,488.810455 
	C178.547073,487.378326 177.262619,485.574036 175.927017,483.423889 
z"/>
<path fill="#34C989" opacity="1.000000" stroke="none" 
	d="
M233.718781,277.200195 
	C233.235504,279.278778 232.497925,281.591339 231.400345,283.980286 
	C231.848373,281.849213 232.656418,279.641693 233.718781,277.200195 
z"/>
<path fill="#2BCD7F" opacity="1.000000" stroke="none" 
	d="
M298.535370,477.078674 
	C298.889832,475.253387 299.569641,473.313690 300.529022,471.191406 
	C300.159302,472.993988 299.510010,474.979126 298.535370,477.078674 
z"/>
<path fill="#2EE866" opacity="1.000000" stroke="none" 
	d="
M200.997070,509.924622 
	C200.798019,509.948822 200.598953,509.973053 200.103333,510.050537 
	C198.219406,509.031799 196.632019,507.959747 194.838287,506.638062 
	C194.631943,506.388397 194.840042,506.167236 195.296402,506.080475 
	C197.500870,507.304016 199.248978,508.614319 200.997070,509.924622 
z"/>
<path fill="#32C87F" opacity="1.000000" stroke="none" 
	d="
M244.939911,516.518188 
	C247.271805,516.450012 249.715515,516.747009 252.569763,517.084717 
	C250.337433,517.044739 247.694595,516.964050 244.939911,516.518188 
z"/>
<path fill="#32C87F" opacity="1.000000" stroke="none" 
	d="
M264.725098,473.045624 
	C264.230591,473.981598 263.403168,474.951019 262.191406,475.851562 
	C262.668732,474.881470 263.530487,473.980255 264.725098,473.045624 
z"/>
<path fill="#31CE7C" opacity="1.000000" stroke="none" 
	d="
M113.413818,205.170929 
	C114.477974,204.422852 115.905952,203.701248 117.700333,203.006866 
	C116.637039,203.755173 115.207336,204.476288 113.413818,205.170929 
z"/>
<path fill="#2BCD7F" opacity="1.000000" stroke="none" 
	d="
M286.327698,496.899109 
	C286.523651,495.808411 287.022675,494.568878 287.873901,493.252319 
	C287.694305,494.366943 287.162567,495.558594 286.327698,496.899109 
z"/>
<path fill="#31CE7C" opacity="1.000000" stroke="none" 
	d="
M118.357681,203.078995 
	C119.122665,202.384003 120.238426,201.694122 121.711304,201.036667 
	C120.948418,201.740753 119.828438,202.412430 118.357681,203.078995 
z"/>
<path fill="#26CC77" opacity="1.000000" stroke="none" 
	d="
M108.593475,182.875626 
	C107.811905,183.574051 106.685608,184.282501 105.187805,184.989670 
	C105.960457,184.287476 107.104607,183.586563 108.593475,182.875626 
z"/>
<path fill="#26CC77" opacity="1.000000" stroke="none" 
	d="
M116.625168,178.919189 
	C115.837914,179.580185 114.684013,180.232330 113.179245,180.860092 
	C113.971764,180.193909 115.115143,179.552139 116.625168,178.919189 
z"/>
<path fill="#26CC77" opacity="1.000000" stroke="none" 
	d="
M112.564095,180.823318 
	C111.802261,181.516403 110.696419,182.215790 109.243500,182.910950 
	C110.004318,182.214355 111.112198,181.521973 112.564095,180.823318 
z"/>
<path fill="#46CE82" opacity="1.000000" stroke="none" 
	d="
M180.929031,491.386993 
	C181.576767,491.879791 182.254074,492.693756 182.878204,493.886963 
	C182.202881,493.413483 181.580734,492.560822 180.929031,491.386993 
z"/>
<path fill="#1BDD6E" opacity="1.000000" stroke="none" 
	d="
M445.069427,224.594177 
	C444.453125,224.470612 443.774536,224.031128 443.070374,223.252411 
	C443.698914,223.368225 444.353027,223.823242 445.069427,224.594177 
z"/>
<path fill="#34C989" opacity="1.000000" stroke="none" 
	d="
M242.471375,285.135193 
	C242.582260,284.473175 243.007431,283.785889 243.778503,283.091370 
	C243.678146,283.759369 243.231903,284.434631 242.471375,285.135193 
z"/>
<path fill="#2BCD7F" opacity="1.000000" stroke="none" 
	d="
M282.375031,501.066956 
	C282.515228,500.473389 282.948944,499.772247 283.727112,499.057007 
	C283.603882,499.681702 283.136230,500.320526 282.375031,501.066956 
z"/>
<path fill="#1BDD6E" opacity="1.000000" stroke="none" 
	d="
M448.575195,227.703979 
	C447.813660,227.503403 446.954987,227.039108 446.077362,226.240479 
	C446.864929,226.417511 447.671478,226.928879 448.575195,227.703979 
z"/>
<path fill="#26CC76" opacity="1.000000" stroke="none" 
	d="
M449.207062,232.670639 
	C448.945526,231.767288 448.989807,230.716415 449.074646,229.270889 
	C449.247742,230.091873 449.380341,231.307480 449.207062,232.670639 
z"/>
<path fill="#2BCD7F" opacity="1.000000" stroke="none" 
	d="
M301.268494,470.813385 
	C301.274963,470.354065 301.550507,469.896545 301.936707,469.192932 
	C301.877411,469.569641 301.707458,470.192413 301.268494,470.813385 
z"/>
<path fill="#32C87F" opacity="1.000000" stroke="none" 
	d="
M291.986053,462.990265 
	C291.986053,462.990265 291.498962,463.010864 290.926025,463.011871 
	C289.914215,463.026337 289.475311,463.039764 289.036438,463.053223 
	C289.036438,463.053223 288.938141,462.927155 288.887451,462.863861 
	C289.663300,462.497833 290.489899,462.195099 291.655518,462.169861 
	C291.991699,462.628326 291.988861,462.809296 291.986053,462.990265 
z"/>
<path fill="#2BCD7F" opacity="1.000000" stroke="none" 
	d="
M284.328064,498.973755 
	C284.487457,498.399689 284.932617,497.734131 285.713440,497.045166 
	C285.570679,497.641937 285.092224,498.262085 284.328064,498.973755 
z"/>
<path fill="#31CE7C" opacity="1.000000" stroke="none" 
	d="
M109.361023,207.102448 
	C109.556999,206.739380 110.078583,206.397842 110.938370,206.072128 
	C110.746590,206.433304 110.216614,206.778641 109.361023,207.102448 
z"/>
<path fill="#46CE82" opacity="1.000000" stroke="none" 
	d="
M179.805908,489.409119 
	C180.191879,489.542328 180.573578,489.989990 180.944885,490.756470 
	C180.556900,490.624695 180.179276,490.174133 179.805908,489.409119 
z"/>
<path fill="#46CE82" opacity="1.000000" stroke="none" 
	d="
M174.777588,481.356750 
	C175.119675,481.509888 175.528076,481.967133 175.931534,482.759247 
	C175.565689,482.616364 175.204803,482.138611 174.777588,481.356750 
z"/>
<path fill="#34C989" opacity="1.000000" stroke="none" 
	d="
M237.962311,275.600037 
	C237.519409,275.726776 236.923996,275.580231 236.176315,275.153931 
	C236.619293,275.025024 237.214539,275.175903 237.962311,275.600037 
z"/>
<path fill="#34C989" opacity="1.000000" stroke="none" 
	d="
M239.923737,276.678802 
	C239.484467,276.775665 238.905197,276.596558 238.198669,276.127411 
	C238.642181,276.025848 239.212952,276.214325 239.923737,276.678802 
z"/>
<path fill="#32C87F" opacity="1.000000" stroke="none" 
	d="
M261.576874,475.814880 
	C261.449799,476.201080 261.017975,476.584442 260.272217,476.975067 
	C260.396240,476.592255 260.834198,476.202148 261.576874,475.814880 
z"/>
<path fill="#32C87F" opacity="1.000000" stroke="none" 
	d="
M267.501831,471.742218 
	C267.324036,472.161194 266.823090,472.537750 265.971680,472.875610 
	C266.140411,472.457916 266.659576,472.078857 267.501831,471.742218 
z"/>
<path fill="#2EC878" opacity="1.000000" stroke="none" 
	d="
M195.903351,467.659729 
	C195.480667,467.772858 194.908188,467.621674 194.189819,467.199646 
	C194.613815,467.084351 195.183670,467.239868 195.903351,467.659729 
z"/>
<path fill="#1BDD6E" opacity="1.000000" stroke="none" 
	d="
M446.015503,225.707123 
	C445.807495,225.773560 445.520996,225.582184 445.142365,225.142639 
	C445.345825,225.079407 445.641418,225.264359 446.015503,225.707123 
z"/>
<path fill="#32C87F" opacity="1.000000" stroke="none" 
	d="
M258.710419,477.992859 
	C258.777222,478.205719 258.588837,478.495300 258.144989,478.862244 
	C258.078125,478.649597 258.266663,478.359589 258.710419,477.992859 
z"/>
<path fill="#32C87F" opacity="1.000000" stroke="none" 
	d="
M259.746765,477.044922 
	C259.799408,477.237396 259.606812,477.518005 259.166321,477.881866 
	C259.112793,477.687775 259.307190,477.410400 259.746765,477.044922 
z"/>
<path fill="#31CE7C" opacity="1.000000" stroke="none" 
	d="
M112.285500,205.856155 
	C112.145470,205.574722 112.349625,205.345367 112.873947,205.130524 
	C112.911499,205.315353 112.723358,205.569748 112.285500,205.856155 
z"/>
<path fill="#24E262" opacity="1.000000" stroke="none" 
	d="
M292.214417,462.878357 
	C291.988861,462.809296 291.991699,462.628326 291.998718,462.175354 
	C292.002838,461.903412 292.474884,461.805237 292.710754,461.855164 
	C292.778687,462.192200 292.610718,462.479340 292.214417,462.878357 
z"/>
<path fill="#FAF8F3" opacity="1.000000" stroke="none" 
	d="
M246.071625,550.447815 
	C245.880341,544.045044 248.372849,540.419067 254.018646,539.272400 
	C277.573944,534.488037 304.840851,549.966919 309.246063,577.363342 
	C311.315826,590.235413 307.692963,602.122986 304.470123,614.109802 
	C302.976837,619.663757 296.686127,622.780701 292.359558,621.141235 
	C287.232513,619.198486 285.258331,613.947266 286.893646,607.863770 
	C288.568146,601.634583 290.216400,595.351624 291.176666,588.986633 
	C293.500610,573.582520 278.868500,556.902649 262.975006,557.809937 
	C261.313690,557.904785 259.628204,557.703918 257.980255,557.882751 
	C252.233246,558.506470 248.387573,556.052429 246.071625,550.447815 
z"/>
<path fill="#F8F5F4" opacity="1.000000" stroke="none" 
	d="
M173.814056,340.848572 
	C164.630920,338.681396 162.037704,331.798218 167.928009,324.983948 
	C172.791489,319.357544 178.221832,314.187561 183.694504,309.133087 
	C187.373322,305.735413 192.872116,306.311249 196.271225,309.860779 
	C199.046768,312.759155 199.149353,317.443573 195.556320,321.011017 
	C188.668533,327.849792 181.341156,334.245850 173.814056,340.848572 
z"/>
<path fill="#013B52" opacity="1.000000" stroke="none" 
	d="
M419.990112,477.987335 
	C420.123413,477.925323 420.403961,478.013763 420.563629,478.264893 
	C420.442749,478.427521 420.137329,478.137787 419.990112,477.987335 
z"/>
<path fill="#F2FCF7" opacity="1.000000" stroke="none" 
	d="
M413.444122,309.153503 
	C402.389954,312.606323 395.784241,319.913483 392.382721,330.355988 
	C391.765778,332.249969 391.217651,334.166260 390.616150,336.065369 
	C388.904541,341.469604 385.451721,343.695953 380.140076,342.835236 
	C376.048584,342.172272 372.103546,338.063232 373.021454,333.484222 
	C374.401672,326.598816 376.091827,319.379486 379.529541,313.378754 
	C388.861328,297.089508 403.711212,289.322510 422.394257,289.074219 
	C428.362000,288.994873 434.363464,289.307159 440.303558,289.900299 
	C446.284760,290.497589 449.339935,294.556519 448.962067,300.525940 
	C448.649597,305.462585 445.393738,307.829163 439.141968,308.009521 
	C430.703094,308.252991 422.269440,308.675568 413.444122,309.153503 
z"/>
<path fill="#24E262" opacity="1.000000" stroke="none" 
	d="
M251.269958,492.014893 
	C252.692642,489.307037 254.469284,486.671204 256.587891,483.982361 
	C256.929840,483.929352 256.966095,483.965485 256.831482,484.333984 
	C254.175217,489.470398 257.736481,490.648224 261.003662,491.999573 
	C258.853180,493.554443 256.702667,495.109314 254.446259,496.740753 
	C253.318741,494.881531 252.471329,493.484222 251.269958,492.014893 
z"/>
<path fill="#23E654" opacity="1.000000" stroke="none" 
	d="
M261.301697,492.144470 
	C257.736481,490.648224 254.175217,489.470398 256.849213,484.352448 
	C263.094452,482.401184 261.868439,488.557495 264.638458,490.934479 
	C265.107300,494.715454 263.511230,493.920227 261.301697,492.144470 
z"/>
<path fill="#24E262" opacity="1.000000" stroke="none" 
	d="
M288.839355,463.310760 
	C289.475311,463.039764 289.914215,463.026337 290.682617,463.025055 
	C289.549866,464.344238 288.087524,465.651245 286.253479,466.934113 
	C286.801880,465.796082 287.722046,464.682190 288.839355,463.310760 
z"/>
<path fill="#24E262" opacity="1.000000" stroke="none" 
	d="
M248.271210,496.108337 
	C248.098053,495.690887 248.263535,495.417603 248.744019,495.089569 
	C249.228561,495.342804 249.499207,495.712006 249.769836,496.081238 
	C249.349472,496.117889 248.929092,496.154572 248.271210,496.108337 
z"/>
<path fill="#24E262" opacity="1.000000" stroke="none" 
	d="
M280.170654,467.807129 
	C280.110199,467.404205 280.314453,466.882996 280.776489,466.239166 
	C280.834686,466.640625 280.635010,467.164703 280.170654,467.807129 
z"/>
<path fill="#24E262" opacity="1.000000" stroke="none" 
	d="
M299.550171,466.465912 
	C299.583740,466.522186 299.516602,466.409637 299.550171,466.465912 
z"/>
<path fill="#22E75D" opacity="1.000000" stroke="none" 
	d="
M201.329742,509.952637 
	C199.248978,508.614319 197.500870,507.304016 195.401901,505.971252 
	C194.219727,504.431915 193.388412,502.915039 192.278564,501.199066 
	C192.000000,501.000000 191.990234,500.992401 191.990234,500.992401 
	C192.140503,497.812653 190.914917,496.526825 187.402618,497.928741 
	C190.968842,493.498596 194.894608,489.062439 198.786591,484.596832 
	C199.906143,483.312286 200.928131,481.942749 202.021637,480.578735 
	C203.920807,480.707977 206.034393,480.851776 208.572510,481.402344 
	C209.711899,483.733704 210.426758,485.658295 211.489471,488.519440 
	C209.857178,489.629852 207.500214,491.233246 205.143250,492.836639 
	C205.686462,492.956421 206.229660,493.076172 206.772858,493.195953 
	C206.853119,495.761688 206.962723,498.326965 207.005051,500.893341 
	C207.044159,503.264038 207.011154,505.635956 206.821075,508.247070 
	C205.419785,509.010223 204.207321,509.533661 202.994858,510.057129 
	C202.550705,510.031647 202.106552,510.006165 201.329742,509.952637 
z"/>
<path fill="#17E559" opacity="1.000000" stroke="none" 
	d="
M207.009918,508.007324 
	C207.011154,505.635956 207.044159,503.264038 207.005051,500.893341 
	C206.962723,498.326965 206.853119,495.761688 206.772858,493.195953 
	C206.229660,493.076172 205.686462,492.956421 205.143250,492.836639 
	C207.500214,491.233246 209.857178,489.629852 211.489471,488.519440 
	C210.426758,485.658295 209.711899,483.733704 208.991989,481.399658 
	C209.438919,480.358582 209.890930,479.726898 210.662506,479.067627 
	C213.091660,481.279846 215.201233,483.519653 217.601257,485.920044 
	C218.485306,487.520721 219.078903,488.960815 219.463593,490.767975 
	C219.254700,493.812592 219.254700,496.490082 219.254700,498.371552 
	C216.991135,500.578583 215.115601,502.701660 212.934586,504.441864 
	C211.148529,505.867004 208.998550,506.836060 207.009918,508.007324 
z"/>
<path fill="#22E75D" opacity="1.000000" stroke="none" 
	d="
M187.467941,491.608093 
	C187.351364,492.059784 187.067001,492.336700 186.764557,492.592194 
	C186.756790,492.598755 186.550827,492.370697 186.437317,492.252014 
	C186.724152,491.978210 187.010971,491.704376 187.467941,491.608093 
z"/>
<path fill="#19E55D" opacity="1.000000" stroke="none" 
	d="
M428.739960,239.035904 
	C428.560883,239.336395 428.079468,239.645828 427.298828,239.968109 
	C427.478943,239.668930 427.958282,239.356873 428.739960,239.035904 
z"/>
<path fill="#0EE051" opacity="1.000000" stroke="none" 
	d="
M206.821075,508.247070 
	C208.998550,506.836060 211.148529,505.867004 212.934586,504.441864 
	C215.115601,502.701660 216.991135,500.578583 219.254700,498.371552 
	C219.254700,496.490082 219.254700,493.812592 219.600586,491.081635 
	C220.768814,492.258118 221.591141,493.488037 222.696289,494.866516 
	C223.543152,497.538910 224.069366,500.072083 224.688461,502.582336 
	C224.965897,503.707275 225.717194,504.774475 225.763092,505.888092 
	C226.137207,514.963623 225.252670,518.252441 216.230667,515.775818 
	C211.835434,514.569275 207.719360,512.345642 203.235886,510.319794 
	C204.207321,509.533661 205.419785,509.010223 206.821075,508.247070 
z"/>
<path fill="#22E75D" opacity="1.000000" stroke="none" 
	d="
M192.003784,501.004883 
	C191.908920,501.041473 191.810287,501.073212 191.850952,501.048676 
	C191.990234,500.992401 192.000000,501.000000 192.003784,501.004883 
z"/>
</svg>